<svg width="37" height="13" viewBox="0 0 37 13" fill="none" xmlns="http://www.w3.org/2000/svg">
<path d="M6.58688 9.07031C6.58688 8.83594 6.55042 8.6276 6.4775 8.44531C6.40979 8.26302 6.2874 8.09635 6.11031 7.94531C5.93323 7.79427 5.68323 7.64844 5.36031 7.50781C5.04261 7.36198 4.63636 7.21354 4.14156 7.0625C3.5999 6.89583 3.0999 6.71094 2.64156 6.50781C2.18844 6.29948 1.79261 6.0599 1.45406 5.78906C1.11552 5.51302 0.852501 5.19792 0.665001 4.84375C0.477501 4.48438 0.383751 4.07031 0.383751 3.60156C0.383751 3.13802 0.480105 2.71615 0.672813 2.33594C0.87073 1.95573 1.14938 1.6276 1.50875 1.35156C1.87333 1.07031 2.30302 0.854167 2.79781 0.703125C3.29261 0.546875 3.83948 0.46875 4.43844 0.46875C5.28219 0.46875 6.00875 0.625 6.61813 0.9375C7.23271 1.25 7.70406 1.66927 8.03219 2.19531C8.36552 2.72135 8.53219 3.30208 8.53219 3.9375H6.58688C6.58688 3.5625 6.50615 3.23177 6.34469 2.94531C6.18844 2.65365 5.94886 2.42448 5.62594 2.25781C5.30823 2.09115 4.90458 2.00781 4.415 2.00781C3.95146 2.00781 3.56604 2.07812 3.25875 2.21875C2.95146 2.35938 2.72229 2.54948 2.57125 2.78906C2.42021 3.02865 2.34469 3.29948 2.34469 3.60156C2.34469 3.8151 2.39417 4.01042 2.49313 4.1875C2.59208 4.35938 2.74313 4.52083 2.94625 4.67188C3.14938 4.81771 3.40458 4.95573 3.71188 5.08594C4.01917 5.21615 4.38115 5.34115 4.79781 5.46094C5.42802 5.64844 5.9775 5.85677 6.44625 6.08594C6.915 6.3099 7.30563 6.5651 7.61813 6.85156C7.93063 7.13802 8.165 7.46354 8.32125 7.82812C8.4775 8.1875 8.55563 8.59635 8.55563 9.05469C8.55563 9.53385 8.45927 9.96615 8.26656 10.3516C8.07386 10.7318 7.79781 11.0573 7.43844 11.3281C7.08427 11.5938 6.65719 11.7995 6.15719 11.9453C5.6624 12.0859 5.11031 12.1562 4.50094 12.1562C3.95406 12.1562 3.415 12.0833 2.88375 11.9375C2.35771 11.7917 1.87854 11.5703 1.44625 11.2734C1.01396 10.9714 0.670209 10.5964 0.415001 10.1484C0.159793 9.69531 0.0321884 9.16667 0.0321884 8.5625H1.99313C1.99313 8.93229 2.05563 9.2474 2.18063 9.50781C2.31083 9.76823 2.49052 9.98177 2.71969 10.1484C2.94886 10.3099 3.21448 10.4297 3.51656 10.5078C3.82386 10.5859 4.15198 10.625 4.50094 10.625C4.95927 10.625 5.34208 10.5599 5.64938 10.4297C5.96188 10.2995 6.19625 10.1172 6.3525 9.88281C6.50875 9.64844 6.58688 9.3776 6.58688 9.07031ZM14.4691 12.1562C13.8441 12.1562 13.279 12.0547 12.7738 11.8516C12.2738 11.6432 11.8467 11.3542 11.4925 10.9844C11.1435 10.6146 10.8753 10.1797 10.6878 9.67969C10.5003 9.17969 10.4066 8.64062 10.4066 8.0625V7.75C10.4066 7.08854 10.5029 6.48958 10.6956 5.95312C10.8883 5.41667 11.1566 4.95833 11.5003 4.57812C11.8441 4.19271 12.2503 3.89844 12.7191 3.69531C13.1878 3.49219 13.6956 3.39062 14.2425 3.39062C14.8467 3.39062 15.3753 3.49219 15.8284 3.69531C16.2816 3.89844 16.6566 4.1849 16.9534 4.55469C17.2555 4.91927 17.4795 5.35417 17.6253 5.85938C17.7764 6.36458 17.8519 6.92188 17.8519 7.53125V8.33594H11.3206V6.98438H15.9925V6.83594C15.9821 6.4974 15.9144 6.17969 15.7894 5.88281C15.6696 5.58594 15.4847 5.34635 15.2347 5.16406C14.9847 4.98177 14.6514 4.89062 14.2347 4.89062C13.9222 4.89062 13.6435 4.95833 13.3988 5.09375C13.1592 5.22396 12.9586 5.41406 12.7972 5.66406C12.6357 5.91406 12.5107 6.21615 12.4222 6.57031C12.3389 6.91927 12.2972 7.3125 12.2972 7.75V8.0625C12.2972 8.43229 12.3467 8.77604 12.4456 9.09375C12.5498 9.40625 12.7008 9.67969 12.8988 9.91406C13.0967 10.1484 13.3363 10.3333 13.6175 10.4688C13.8988 10.599 14.2191 10.6641 14.5784 10.6641C15.0316 10.6641 15.4352 10.5729 15.7894 10.3906C16.1435 10.2083 16.4508 9.95052 16.7113 9.61719L17.7034 10.5781C17.5211 10.8438 17.2842 11.099 16.9925 11.3438C16.7008 11.5833 16.3441 11.7786 15.9222 11.9297C15.5055 12.0807 15.0211 12.1562 14.4691 12.1562ZM21.8278 5.35156V12H19.945V3.54688H21.7184L21.8278 5.35156ZM21.4919 7.46094L20.8825 7.45312C20.8877 6.85417 20.971 6.30469 21.1325 5.80469C21.2992 5.30469 21.5283 4.875 21.82 4.51562C22.1169 4.15625 22.471 3.88021 22.8825 3.6875C23.294 3.48958 23.7523 3.39062 24.2575 3.39062C24.6637 3.39062 25.0309 3.44792 25.3591 3.5625C25.6924 3.67188 25.9762 3.85156 26.2106 4.10156C26.4502 4.35156 26.6325 4.67708 26.7575 5.07812C26.8825 5.47396 26.945 5.96094 26.945 6.53906V12H25.0544V6.53125C25.0544 6.125 24.9945 5.80469 24.8747 5.57031C24.7601 5.33073 24.5908 5.16146 24.3669 5.0625C24.1481 4.95833 23.8747 4.90625 23.5466 4.90625C23.2236 4.90625 22.9346 4.97396 22.6794 5.10938C22.4242 5.24479 22.208 5.42969 22.0309 5.66406C21.8591 5.89844 21.7262 6.16927 21.6325 6.47656C21.5387 6.78385 21.4919 7.11198 21.4919 7.46094ZM34.6631 10.25V0H36.5537V12H34.8428L34.6631 10.25ZM29.1631 7.86719V7.70312C29.1631 7.0625 29.2386 6.47917 29.3897 5.95312C29.5407 5.42188 29.7595 4.96615 30.0459 4.58594C30.3324 4.20052 30.6814 3.90625 31.0928 3.70312C31.5043 3.49479 31.9678 3.39062 32.4834 3.39062C32.9939 3.39062 33.4418 3.48958 33.8272 3.6875C34.2126 3.88542 34.5407 4.16927 34.8116 4.53906C35.0824 4.90365 35.2985 5.34115 35.46 5.85156C35.6215 6.35677 35.736 6.91927 35.8037 7.53906V8.0625C35.736 8.66667 35.6215 9.21875 35.46 9.71875C35.2985 10.2188 35.0824 10.651 34.8116 11.0156C34.5407 11.3802 34.21 11.6615 33.8194 11.8594C33.434 12.0573 32.9834 12.1562 32.4678 12.1562C31.9574 12.1562 31.4965 12.0495 31.085 11.8359C30.6787 11.6224 30.3324 11.3229 30.0459 10.9375C29.7595 10.5521 29.5407 10.099 29.3897 9.57812C29.2386 9.05208 29.1631 8.48177 29.1631 7.86719ZM31.0459 7.70312V7.86719C31.0459 8.2526 31.0798 8.61198 31.1475 8.94531C31.2204 9.27865 31.3324 9.57292 31.4834 9.82812C31.6345 10.0781 31.8298 10.276 32.0694 10.4219C32.3142 10.5625 32.6058 10.6328 32.9444 10.6328C33.3715 10.6328 33.723 10.5391 33.9991 10.3516C34.2751 10.1641 34.4912 9.91146 34.6475 9.59375C34.809 9.27083 34.9183 8.91146 34.9756 8.51562V7.10156C34.9444 6.79427 34.8793 6.50781 34.7803 6.24219C34.6866 5.97656 34.559 5.74479 34.3975 5.54688C34.236 5.34375 34.0355 5.1875 33.7959 5.07812C33.5616 4.96354 33.2829 4.90625 32.96 4.90625C32.6162 4.90625 32.3246 4.97917 32.085 5.125C31.8454 5.27083 31.6475 5.47135 31.4912 5.72656C31.3402 5.98177 31.2282 6.27865 31.1553 6.61719C31.0824 6.95573 31.0459 7.31771 31.0459 7.70312Z" fill="white"/>
</svg>
