<svg aria-hidden="true" style="position: absolute; width: 0; height: 0; overflow: hidden;" version="1.1" xmlns="http://www.w3.org/2000/svg" xmlns:xlink="http://www.w3.org/1999/xlink">
<defs>
<symbol id="icon-linkedin1" viewBox="0 0 32 32">
<path fill="#f4f4fd" style="fill: var(--color1, #f4f4fd)" d="M31.992 32v-0.001h0.008v-11.736c0-5.741-1.236-10.164-7.948-10.164-3.227 0-5.392 1.771-6.276 3.449h-0.093v-2.913h-6.364v21.364h6.627v-10.579c0-2.785 0.528-5.479 3.977-5.479 3.399 0 3.449 3.179 3.449 5.657v10.401h6.62z"></path>
<path fill="#f4f4fd" style="fill: var(--color1, #f4f4fd)" d="M0.528 10.636h6.635v21.364h-6.635v-21.364z"></path>
<path fill="#f4f4fd" style="fill: var(--color1, #f4f4fd)" d="M3.843-0c-2.121 0-3.843 1.721-3.843 3.843s1.721 3.879 3.843 3.879c2.121 0 3.843-1.757 3.843-3.879-0.001-2.121-1.723-3.843-3.843-3.843v0z"></path>
</symbol>
<symbol id="icon-twitter1" viewBox="0 0 32 32">
<path fill="#f4f4fd" style="fill: var(--color1, #f4f4fd)" d="M32 6.078c-1.19 0.522-2.458 0.868-3.78 1.036 1.36-0.812 2.398-2.088 2.886-3.626-1.268 0.756-2.668 1.29-4.16 1.588-1.204-1.282-2.92-2.076-4.792-2.076-3.632 0-6.556 2.948-6.556 6.562 0 0.52 0.044 1.020 0.152 1.496-5.454-0.266-10.28-2.88-13.522-6.862-0.566 0.982-0.898 2.106-0.898 3.316 0 2.272 1.17 4.286 2.914 5.452-1.054-0.020-2.088-0.326-2.964-0.808 0 0.020 0 0.046 0 0.072 0 3.188 2.274 5.836 5.256 6.446-0.534 0.146-1.116 0.216-1.72 0.216-0.42 0-0.844-0.024-1.242-0.112 0.85 2.598 3.262 4.508 6.13 4.57-2.232 1.746-5.066 2.798-8.134 2.798-0.538 0-1.054-0.024-1.57-0.090 2.906 1.874 6.35 2.944 10.064 2.944 12.072 0 18.672-10 18.672-18.668 0-0.29-0.010-0.57-0.024-0.848 1.302-0.924 2.396-2.078 3.288-3.406z"></path>
</symbol>
<symbol id="icon-facebook1" viewBox="0 0 32 32">
<path fill="#f4f4fd" style="fill: var(--color1, #f4f4fd)" d="M21.329 5.313h2.921v-5.088c-0.504-0.069-2.237-0.225-4.256-0.225-4.212 0-7.097 2.649-7.097 7.519v4.481h-4.648v5.688h4.648v14.312h5.699v-14.311h4.46l0.708-5.688h-5.169v-3.919c0.001-1.644 0.444-2.769 2.735-2.769v0z"></path>
</symbol>
<symbol id="icon-instagram2" viewBox="0 0 32 32">
<path fill="#f4f4fd" style="fill: var(--color1, #f4f4fd)" d="M31.969 9.408c-0.075-1.7-0.35-2.869-0.744-3.882-0.406-1.075-1.031-2.038-1.85-2.838-0.8-0.813-1.769-1.444-2.832-1.844-1.019-0.394-2.182-0.669-3.882-0.744-1.713-0.081-2.257-0.1-6.601-0.1s-4.888 0.019-6.595 0.094c-1.7 0.075-2.869 0.35-3.882 0.744-1.075 0.406-2.038 1.031-2.838 1.85-0.813 0.8-1.444 1.769-1.844 2.832-0.394 1.019-0.669 2.182-0.744 3.882-0.081 1.713-0.1 2.257-0.1 6.601s0.019 4.888 0.094 6.595c0.075 1.7 0.35 2.869 0.744 3.882 0.406 1.075 1.038 2.038 1.85 2.838 0.8 0.813 1.769 1.444 2.832 1.844 1.019 0.394 2.182 0.669 3.882 0.744 1.706 0.075 2.25 0.094 6.595 0.094s4.888-0.018 6.595-0.094c1.7-0.075 2.869-0.35 3.882-0.744 2.151-0.831 3.851-2.532 4.682-4.682 0.394-1.019 0.669-2.182 0.744-3.882 0.075-1.707 0.094-2.251 0.094-6.595s-0.006-4.888-0.081-6.595zM29.087 22.473c-0.069 1.563-0.331 2.407-0.55 2.969-0.538 1.394-1.644 2.501-3.038 3.038-0.563 0.219-1.413 0.481-2.969 0.55-1.688 0.075-2.194 0.094-6.464 0.094s-4.782-0.018-6.464-0.094c-1.563-0.069-2.407-0.331-2.969-0.55-0.694-0.256-1.325-0.663-1.838-1.194-0.531-0.519-0.938-1.144-1.194-1.838-0.219-0.563-0.481-1.413-0.55-2.969-0.075-1.688-0.094-2.194-0.094-6.464s0.019-4.782 0.094-6.464c0.069-1.563 0.331-2.407 0.55-2.969 0.256-0.694 0.663-1.325 1.2-1.838 0.519-0.531 1.144-0.938 1.838-1.194 0.563-0.219 1.413-0.481 2.969-0.55 1.688-0.075 2.194-0.094 6.464-0.094 4.276 0 4.782 0.019 6.464 0.094 1.563 0.069 2.407 0.331 2.969 0.55 0.694 0.256 1.325 0.662 1.838 1.194 0.531 0.519 0.938 1.144 1.194 1.838 0.219 0.563 0.481 1.413 0.55 2.969 0.075 1.688 0.094 2.194 0.094 6.464s-0.019 4.77-0.094 6.457z"></path>
<path fill="#f4f4fd" style="fill: var(--color1, #f4f4fd)" d="M16.059 7.782c-4.538 0-8.22 3.682-8.22 8.22s3.682 8.22 8.22 8.22c4.538 0 8.22-3.682 8.22-8.22s-3.682-8.22-8.22-8.22zM16.059 21.335c-2.944 0-5.332-2.388-5.332-5.332s2.388-5.332 5.332-5.332c2.944 0 5.332 2.388 5.332 5.332s-2.388 5.332-5.332 5.332v0z"></path>
<path fill="#f4f4fd" style="fill: var(--color1, #f4f4fd)" d="M26.524 7.457c0 1.060-0.859 1.919-1.919 1.919s-1.919-0.859-1.919-1.919c0-1.060 0.859-1.919 1.919-1.919s1.919 0.859 1.919 1.919v0z"></path>
</symbol>
<symbol id="icon-close-black" viewBox="0 0 32 32">
<path d="M32 3.224l-3.224-3.224-12.776 12.776-12.776-12.776-3.224 3.224 12.776 12.776-12.776 12.776 3.224 3.224 12.776-12.776 12.776 12.776 3.224-3.224-12.776-12.776 12.776-12.776z"></path>
</symbol>
<symbol id="icon-icon-send" viewBox="0 0 38 32">
<path d="M38.4 0l-38.4 18 12.272 3.788 18.928-14.788-14.397 16.186 0.012 0.004-0.014-0.004v8.814l6.882-6.691 8.718 2.691 6-28z"></path>
</symbol>
<symbol id="icon-Vector" viewBox="0 0 32 32">
<path d="M16 16c4.42 0 8-3.58 8-8s-3.58-8-8-8c-4.42 0-8 3.58-8 8s3.58 8 8 8zM16 20c-5.34 0-16 2.68-16 8v2c0 1.1 0.9 2 2 2h28c1.1 0 2-0.9 2-2v-2c0-5.32-10.66-8-16-8z"></path>
</symbol>
<symbol id="icon-Vector2" viewBox="0 0 32 32">
<path d="M28.865 21.822l-4.525-0.517c-1.087-0.125-2.155 0.249-2.921 1.015l-3.278 3.278c-5.041-2.565-9.174-6.68-11.739-11.739l3.296-3.296c0.766-0.766 1.14-1.835 1.015-2.921l-0.517-4.489c-0.214-1.799-1.728-3.153-3.545-3.153h-3.082c-2.013 0-3.687 1.675-3.563 3.687 0.944 15.213 13.111 27.362 28.306 28.306 2.013 0.125 3.687-1.55 3.687-3.563v-3.082c0.018-1.799-1.336-3.313-3.135-3.527z"></path>
</symbol>
<symbol id="icon-Vector3" viewBox="0 0 43 32">
<path d="M37.333 0h-32c-2.2 0-3.98 1.8-3.98 4l-0.020 24c0 2.2 1.8 4 4 4h32c2.2 0 4-1.8 4-4v-24c0-2.2-1.8-4-4-4zM36.533 8.5l-14.14 8.84c-0.64 0.4-1.48 0.4-2.12 0l-14.14-8.84c-0.5-0.32-0.8-0.86-0.8-1.44 0-1.34 1.46-2.14 2.6-1.44l13.4 8.38 13.4-8.38c1.14-0.7 2.6 0.1 2.6 1.44 0 0.58-0.3 1.12-0.8 1.44z"></path>
</symbol>
<symbol id="icon-Order-Service" viewBox="0 0 91 32">
<path d="M16.214 22.327c0-0.577-0.090-1.090-0.269-1.538-0.167-0.449-0.468-0.859-0.904-1.231s-1.051-0.731-1.846-1.077c-0.782-0.359-1.782-0.724-3-1.096-1.333-0.41-2.564-0.865-3.692-1.365-1.115-0.513-2.090-1.103-2.923-1.769-0.833-0.679-1.481-1.455-1.942-2.327-0.462-0.885-0.692-1.904-0.692-3.058 0-1.141 0.237-2.179 0.712-3.115 0.487-0.936 1.173-1.744 2.058-2.423 0.897-0.692 1.955-1.224 3.173-1.596 1.218-0.385 2.564-0.577 4.038-0.577 2.077 0 3.865 0.385 5.365 1.154 1.513 0.769 2.673 1.801 3.481 3.096 0.82 1.295 1.231 2.724 1.231 4.288h-4.788c0-0.923-0.199-1.737-0.596-2.442-0.385-0.718-0.974-1.282-1.769-1.692-0.782-0.41-1.776-0.615-2.981-0.615-1.141 0-2.090 0.173-2.846 0.519s-1.321 0.814-1.692 1.404c-0.372 0.59-0.558 1.256-0.558 2 0 0.526 0.122 1.006 0.365 1.442 0.244 0.423 0.615 0.82 1.115 1.192 0.5 0.359 1.128 0.699 1.885 1.019s1.647 0.628 2.673 0.923c1.551 0.462 2.904 0.974 4.058 1.538 1.154 0.551 2.115 1.179 2.885 1.885s1.346 1.506 1.731 2.404c0.385 0.885 0.577 1.891 0.577 3.019 0 1.179-0.237 2.244-0.712 3.192-0.474 0.936-1.154 1.737-2.038 2.404-0.872 0.654-1.923 1.16-3.154 1.519-1.218 0.346-2.577 0.519-4.077 0.519-1.346 0-2.673-0.179-3.981-0.538-1.295-0.359-2.474-0.904-3.538-1.635-1.064-0.743-1.91-1.666-2.538-2.769-0.628-1.115-0.942-2.417-0.942-3.904h4.827c0 0.91 0.154 1.686 0.462 2.327 0.321 0.641 0.763 1.167 1.327 1.577 0.564 0.398 1.218 0.692 1.962 0.885 0.756 0.192 1.564 0.288 2.423 0.288 1.128 0 2.070-0.16 2.827-0.481 0.769-0.32 1.346-0.769 1.731-1.346s0.577-1.244 0.577-2zM35.616 29.923c-1.538 0-2.929-0.25-4.173-0.75-1.231-0.513-2.282-1.224-3.154-2.135-0.859-0.91-1.519-1.981-1.981-3.212s-0.692-2.558-0.692-3.981v-0.769c0-1.628 0.237-3.103 0.711-4.423s1.135-2.449 1.981-3.385c0.846-0.949 1.846-1.673 3-2.173s2.404-0.75 3.75-0.75c1.487 0 2.788 0.25 3.904 0.75s2.039 1.205 2.769 2.115c0.744 0.897 1.295 1.968 1.654 3.212 0.372 1.244 0.558 2.615 0.558 4.115v1.981h-16.077v-3.327h11.5v-0.365c-0.026-0.833-0.192-1.615-0.5-2.346-0.295-0.731-0.75-1.321-1.365-1.769s-1.436-0.673-2.462-0.673c-0.769 0-1.455 0.167-2.058 0.5-0.59 0.321-1.084 0.788-1.481 1.404s-0.705 1.359-0.923 2.231c-0.205 0.859-0.308 1.827-0.308 2.904v0.769c0 0.91 0.122 1.756 0.365 2.538 0.256 0.769 0.628 1.442 1.116 2.019s1.077 1.032 1.769 1.366c0.692 0.32 1.481 0.481 2.365 0.481 1.116 0 2.109-0.224 2.981-0.673s1.628-1.083 2.269-1.904l2.442 2.365c-0.449 0.654-1.032 1.282-1.75 1.885-0.718 0.59-1.596 1.070-2.635 1.442-1.026 0.372-2.218 0.558-3.577 0.558zM53.73 13.173v16.365h-4.635v-20.808h4.365l0.269 4.442zM52.903 18.365l-1.5-0.019c0.013-1.474 0.218-2.827 0.615-4.058 0.41-1.231 0.974-2.288 1.692-3.173 0.731-0.885 1.602-1.564 2.615-2.038 1.013-0.487 2.141-0.731 3.385-0.731 1 0 1.904 0.141 2.712 0.423 0.82 0.269 1.519 0.712 2.096 1.327 0.59 0.615 1.039 1.417 1.346 2.404 0.308 0.974 0.462 2.173 0.462 3.596v13.442h-4.654v-13.462c0-1-0.147-1.788-0.442-2.365-0.282-0.59-0.699-1.006-1.25-1.25-0.539-0.256-1.212-0.385-2.019-0.385-0.795 0-1.506 0.167-2.135 0.5s-1.16 0.788-1.596 1.365c-0.423 0.577-0.75 1.244-0.981 2s-0.346 1.564-0.346 2.423zM85.325 25.231v-25.231h4.654v29.538h-4.211l-0.442-4.308zM71.786 19.365v-0.404c0-1.577 0.186-3.013 0.558-4.308 0.372-1.308 0.91-2.429 1.615-3.365 0.705-0.949 1.564-1.673 2.577-2.173 1.013-0.513 2.154-0.769 3.423-0.769 1.257 0 2.359 0.244 3.308 0.731s1.756 1.186 2.423 2.096c0.667 0.897 1.199 1.974 1.596 3.231 0.398 1.244 0.679 2.628 0.846 4.154v1.288c-0.167 1.487-0.448 2.846-0.846 4.077s-0.929 2.295-1.596 3.192c-0.667 0.897-1.481 1.59-2.442 2.077-0.949 0.487-2.058 0.731-3.327 0.731-1.256 0-2.391-0.263-3.404-0.788-1-0.526-1.853-1.263-2.558-2.211s-1.244-2.064-1.615-3.346c-0.372-1.295-0.558-2.699-0.558-4.212zM76.421 18.962v0.404c0 0.949 0.083 1.833 0.25 2.654 0.179 0.821 0.455 1.545 0.827 2.173 0.372 0.615 0.853 1.102 1.442 1.462 0.603 0.346 1.32 0.519 2.154 0.519 1.051 0 1.917-0.231 2.596-0.692s1.211-1.083 1.596-1.865c0.398-0.795 0.667-1.679 0.808-2.654v-3.481c-0.077-0.756-0.237-1.462-0.481-2.115-0.231-0.654-0.545-1.224-0.942-1.712-0.398-0.5-0.891-0.885-1.481-1.154-0.577-0.282-1.263-0.423-2.058-0.423-0.846 0-1.564 0.18-2.154 0.538s-1.077 0.853-1.462 1.481c-0.372 0.628-0.647 1.359-0.827 2.192s-0.269 1.724-0.269 2.673z"></path>
</symbol>
<symbol id="icon-access" viewBox="0 0 40 32">
<path d="M33.782 1.020c0.691-0.662 1.611-1.027 2.565-1.020s1.869 0.387 2.55 1.059c0.681 0.672 1.076 1.584 1.101 2.543s-0.321 1.891-0.966 2.598l-19.578 24.617c-0.337 0.365-0.743 0.657-1.195 0.86s-0.939 0.312-1.434 0.322c-0.495 0.009-0.986-0.082-1.445-0.268s-0.876-0.463-1.226-0.815l-12.984-13.054c-0.362-0.339-0.652-0.747-0.853-1.201s-0.309-0.944-0.318-1.441 0.082-0.99 0.267-1.451c0.185-0.461 0.461-0.879 0.81-1.231s0.766-0.628 1.224-0.814 0.949-0.277 1.443-0.269c0.494 0.009 0.981 0.118 1.433 0.32s0.858 0.494 1.195 0.857l10.275 10.325 17.042-21.83c0.031-0.038 0.063-0.074 0.098-0.109h-0.005z"></path>
</symbol>
<symbol id="icon-person1" viewBox="0 0 32 32">
<path d="M16 16c2.947 0 5.333-2.387 5.333-5.333s-2.387-5.333-5.333-5.333c-2.947 0-5.333 2.387-5.333 5.333s2.387 5.333 5.333 5.333zM16 18.667c-3.56 0-10.667 1.787-10.667 5.333v1.333c0 0.733 0.6 1.333 1.333 1.333h18.667c0.733 0 1.333-0.6 1.333-1.333v-1.333c0-3.547-7.107-5.333-10.667-5.333z"></path>
</symbol>
<symbol id="icon-email3" viewBox="0 0 24 32">
<path d="M20 8h-16c-1.1 0-1.99 0.9-1.99 2l-0.010 12c0 1.1 0.9 2 2 2h16c1.1 0 2-0.9 2-2v-12c0-1.1-0.9-2-2-2zM19.6 12.25l-7.070 4.42c-0.32 0.2-0.74 0.2-1.060 0l-7.070-4.42c-0.25-0.16-0.4-0.43-0.4-0.72 0-0.67 0.73-1.070 1.3-0.72l6.7 4.19 6.7-4.19c0.57-0.35 1.3 0.050 1.3 0.72 0 0.29-0.15 0.56-0.4 0.72z"></path>
</symbol>
<symbol id="icon-phone2" viewBox="0 0 24 32">
<path d="M19.635 18.487l-2.451-0.28c-0.589-0.067-1.167 0.135-1.582 0.55l-1.775 1.775c-2.731-1.389-4.969-3.618-6.359-6.359l1.785-1.785c0.415-0.415 0.618-0.994 0.55-1.582l-0.28-2.432c-0.116-0.975-0.936-1.708-1.92-1.708h-1.669c-1.090 0-1.997 0.907-1.93 1.997 0.511 8.24 7.102 14.821 15.332 15.332 1.090 0.068 1.997-0.839 1.997-1.93v-1.669c0.010-0.975-0.724-1.795-1.698-1.911z"></path>
</symbol>
<symbol id="icon-charm_menu-hamburger" viewBox="0 0 47 32">
<path stroke-linejoin="round" stroke-linecap="round" stroke-miterlimit="4" stroke-width="4.3636" d="M1.96 29.154h42.965M1.96 15.615h42.965M1.96 2.077h42.965"></path>
</symbol>
</defs>
</svg>
